<?xml version="1.0" encoding="UTF-8" standalone="no"?>
<!-- Created with Inkscape (http://www.inkscape.org/) -->

<svg
   xmlns:dc="http://purl.org/dc/elements/1.1/"
   xmlns:cc="http://creativecommons.org/ns#"
   xmlns:rdf="http://www.w3.org/1999/02/22-rdf-syntax-ns#"
   xmlns:svg="http://www.w3.org/2000/svg"
   xmlns="http://www.w3.org/2000/svg"
   xmlns:sodipodi="http://sodipodi.sourceforge.net/DTD/sodipodi-0.dtd"
   xmlns:inkscape="http://www.inkscape.org/namespaces/inkscape"
   width="35"
   height="35"
   id="svg25168"
   version="1.1"
   inkscape:version="0.48.2 r9819"
   sodipodi:docname="sprite.svg"
   inkscape:export-filename="./sprite.png"
   inkscape:export-xdpi="90"
   inkscape:export-ydpi="90">
  <defs
     id="defs25170" />
  <sodipodi:namedview
     id="base"
     pagecolor="#ffffff"
     bordercolor="#666666"
     borderopacity="1.0"
     inkscape:pageopacity="0.0"
     inkscape:pageshadow="2"
     inkscape:zoom="11.501326"
     inkscape:cx="17.560792"
     inkscape:cy="21.621444"
     inkscape:document-units="px"
     inkscape:current-layer="layer8"
     showgrid="true"
     inkscape:window-width="1237"
     inkscape:window-height="740"
     inkscape:window-x="48"
     inkscape:window-y="20"
     inkscape:window-maximized="0">
    <inkscape:grid
       empspacing="5"
       visible="true"
       enabled="true"
       snapvisiblegridlinesonly="true"
       type="xygrid"
       id="grid25204" />
  </sodipodi:namedview>
  <metadata
     id="metadata25173">
    <rdf:RDF>
      <cc:Work
         rdf:about="">
        <dc:format>image/svg+xml</dc:format>
        <dc:type
           rdf:resource="http://purl.org/dc/dcmitype/StillImage" />
        <dc:title></dc:title>
      </cc:Work>
    </rdf:RDF>
  </metadata>
  <g
     inkscape:groupmode="layer"
     id="layer8"
     inkscape:label="underlay"
     style="display:none"
     transform="translate(0,-5)">
    <rect
       style="color:#000000;fill:#ececec;fill-opacity:1;fill-rule:nonzero;stroke:none;stroke-width:3;marker:none;visibility:visible;display:inline;overflow:visible;enable-background:accumulate"
       id="rect25719"
       width="35"
       height="35"
       x="0"
       y="5" />
  </g>
  <g
     inkscape:label="sprite"
     inkscape:groupmode="layer"
     id="layer1"
     transform="translate(0,-1017.3622)"
     style="display:inline">
    <path
       style="fill:#f6f6f6;fill-opacity:1;display:inline"
       d="m 11.627907,1028.6002 c -0.133846,0 -0.195349,0.032 -0.195349,0.032 -0.677803,1.695 -0.257537,2.9766 -0.130232,3.2883 C 10.505667,1032.7806 10,1033.8311 10,1035.1767 c 0,1.0159 0.140776,1.9428 0.423256,2.7348 l 0,0.1303 c 0.0622,0.164 0.150153,0.3347 0.227907,0.4884 l 0.06512,0.032 c 0.794096,1.4803 2.35896,2.4997 5.144186,2.8 l 4.2,0 c 2.970344,-0.2946 4.422271,-1.3097 5.07907,-2.8 l 0,-0.032 c 0.0622,-0.1505 0.114573,-0.3274 0.162791,-0.4884 l 0.06512,-0.1303 c 0.220249,-0.7935 0.260465,-1.7165 0.260465,-2.7348 0,-1.4604 -0.541778,-2.5947 -1.432558,-3.4837 0.155664,-0.5025 0.375861,-1.6319 -0.195349,-3.0605 0,0 -1.008938,-0.321 -3.288372,1.2046 -0.892927,-0.2231 -1.848313,-0.3256 -2.8,-0.3256 -1.047132,0 -2.106184,0.1527 -3.093023,0.4234 -1.764157,-1.2036 -2.789162,-1.3422 -3.190698,-1.335 z"
       id="path25771"
       inkscape:connector-curvature="0" />
    <path
       style="fill:#404040;fill-opacity:1;display:inline"
       d="m 11.627907,1028.5793 c -0.133846,0 -0.195349,0.032 -0.195349,0.032 -0.677803,1.695 -0.257537,2.9766 -0.130232,3.2883 C 10.505667,1032.7597 10,1033.8102 10,1035.1557 c 0,1.0159 0.140776,1.9429 0.423256,2.7349 l 0,0.1302 c 0.0622,0.164 0.150153,0.3348 0.227907,0.4885 l 0.06512,0.032 c 0.794096,1.4802 2.35896,2.4997 5.144186,2.8 l 4.2,0 c 2.970344,-0.2947 4.422271,-1.3098 5.07907,-2.8 l 0,-0.032 c 0.0622,-0.1506 0.114573,-0.3274 0.162791,-0.4885 l 0.06512,-0.1302 c 0.220249,-0.7936 0.260465,-1.7166 0.260465,-2.7349 0,-1.4603 -0.541778,-2.5946 -1.432558,-3.4836 0.155664,-0.5025 0.375861,-1.6319 -0.195349,-3.0605 0,0 -1.008938,-0.321 -3.288372,1.2046 -0.892927,-0.2232 -1.848313,-0.3256 -2.8,-0.3256 -1.047132,0 -2.106184,0.1526 -3.093023,0.4233 -1.764157,-1.2035 -2.789162,-1.3421 -3.190698,-1.3349 z m 9.018605,5.9582 c 0.83203,-0.01 1.555961,0.1083 2.083721,0.586 0.639754,0.5796 1.04186,1.2645 1.04186,2.0186 0,3.521 -2.655588,3.6466 -5.893023,3.6466 -3.237998,0 -5.860465,-0.5177 -5.860465,-3.6466 0,-0.7491 0.344897,-1.4413 0.976744,-2.0186 0.526994,-0.4809 1.253056,-0.5606 2.083721,-0.5535 0.830665,0.01 1.788114,0.098 2.8,0.098 1.007343,-2e-4 1.935411,-0.1201 2.767442,-0.1302 z m -5.925582,1.6604 c -0.448958,0 -0.813953,0.5254 -0.813953,1.1721 0,0.6465 0.365276,1.1396 0.813953,1.1396 0.448677,0 0.813954,-0.4931 0.813954,-1.1396 l 0,-0.032 c 0,-0.6466 -0.365547,-1.1396 -0.813954,-1.1396 z m 6.544186,0 c -0.448958,0 -0.813953,0.5254 -0.813953,1.1721 0,0.6465 0.365276,1.1396 0.813953,1.1396 0.448688,0 0.813954,-0.4931 0.813954,-1.1396 l 0,-0.032 c 0,-0.6466 -0.365547,-1.1396 -0.813954,-1.1396 z"
       id="path4136-9"
       inkscape:connector-curvature="0" />
  </g>
</svg>
